<svg width="38" height="38" viewBox="0 0 38 38" fill="none" xmlns="http://www.w3.org/2000/svg">
<rect x="0.5" y="0.5" width="37" height="37" rx="7.5" fill="#3C3C3C"/>
<rect x="0.5" y="0.5" width="37" height="37" rx="7.5" stroke="white"/>
<path d="M22.1413 25.5408C16.8068 25.5408 12.483 21.2166 12.483 15.8809C12.483 12.2025 14.5625 9.04331 17.5874 7.41223C11.8515 8.13838 7.41211 13.0259 7.41211 18.9597C7.41211 25.3934 12.6284 30.6118 19.0635 30.6118C24.9967 30.6118 29.8839 26.1708 30.6111 20.4353C28.9795 23.4619 25.819 25.5408 22.1413 25.5408Z" fill="#CACACA"/>
<path d="M23.3316 21.7266L25.3754 20.6515L27.4193 21.7266L27.0287 19.4507L28.6814 17.8397L26.3971 17.5077L25.3754 15.4374L24.3532 17.5077L22.0696 17.8397L23.7222 19.4507L23.3316 21.7266Z" fill="#CACACA"/>
</svg>
